<?xml version="1.0" encoding="utf-8"?>
<!-- Generator: Adobe Illustrator 18.1.0, SVG Export Plug-In . SVG Version: 6.00 Build 0)  -->
<svg version="1.1" xmlns="http://www.w3.org/2000/svg" xmlns:xlink="http://www.w3.org/1999/xlink" x="0px" y="0px"
	 viewBox="0 0 337.2 192.8" enable-background="new 0 0 337.2 192.8" xml:space="preserve">
<g id="Layer_1" display="none">
</g>
<g id="Layer_3" display="none">
</g>
<g id="Layer_2" display="none">
	<path display="inline" fill="#FFFFFF" stroke="#000000" stroke-width="3" stroke-miterlimit="10" d="M70.1,97.7
		c-0.2-0.5-0.5-0.5-1.4-1.4c-1-0.9-1-1.2-1.8-2c-2-2-3.5-1.9-3.9-3.4c-0.2-0.5-0.1-1,0-1.5c0.4-2.5,0.8-5.6-0.2-7.6
		c-1.2-2.4-3.5-1.5-4.5-4.1c-0.6-1.5-0.3-2.8-1.3-3.4c-0.8-0.5-1.3,0.1-2.2-0.3c-1.7-0.7-2.8-3.8-1.8-5.6c0.4-0.7,1.2-0.9,1.5-2.1
		c0.4-1.2,0-2.4,0-2.5c-0.3-1-0.7-1-0.7-1.7c0-0.9,0.9-0.9,1-2c0.1-0.8-0.4-1-0.2-1.9c0.2-0.9,0.8-1.3,0.6-1.8
		c-0.2-0.4-0.7-0.3-1-0.7c-0.5-0.6-0.1-1.5-0.1-1.7c0.7-2.7-7-118.1-8.4-139.5c0,0,0,0,0,0c-0.1,0-0.3,0-0.4,0c-0.2,0-0.4,0-0.7-0.1
		c-0.3,0.4-0.6,0.8-1,1.2c-1.7,1.4-4.2,1.6-5.7,0.7c0,0,0,0,0,0c-0.4,0-0.7,0-1-0.1c-0.1,0-0.2-0.1-0.3-0.1
		c-0.2-0.1-0.4-0.1-0.6-0.2c-0.1-0.1-0.2-0.1-0.4-0.2c-0.1-0.1-0.3-0.1-0.4-0.2c-0.1-0.1-0.2-0.2-0.3-0.3c-0.1-0.1-0.2-0.2-0.3-0.3
		c-0.1-0.1-0.2-0.3-0.3-0.4c-0.1-0.1-0.1-0.2-0.2-0.2c-0.1-0.2-0.2-0.3-0.3-0.5c0-0.1-0.1-0.1-0.1-0.2c-0.1-0.2-0.2-0.4-0.2-0.6
		c0,0,0-0.1,0-0.1c-0.1-0.2-0.1-0.5-0.1-0.7c0,0,0,0,0,0c-0.1,0-0.1,0-0.2-0.1c-0.7,0.4-1.5,0.7-2.4,0.7c-0.2,0-0.3,0-0.5-0.1
		c-0.2,0.2-0.4,0.4-0.5,0.7c-0.1,0.5,0.2,0.7,0.1,1.3c-0.2,1-1.5,1.5-1.8,1.7c-1.8,0.8-3.7,0-3.7,0.2c-0.1,0.2,3.3,0.9,3.4,2.2
		c0,0.4-0.2,0.5-0.9,1.4c-1.1,1.5-1.8,2.4-1.7,3.3c0.1,1,1,1,1.1,2c0.2,1.6-2,3.2-2.4,3.5c-1.6,1.2-3.1,1.4-3.1,2
		c0,0.5,0.9,0.5,1.1,1.2c0.2,0.8-0.6,1.2-0.4,1.9c0.3,0.8,1.9,0.7,1.9,1c0,0.3-1,0.4-2.5,1c-1.1,0.5-2,0.8-2,1.3
		c0,0.4,0.6,0.5,1.1,1.2c0.5,0.8,0.2,1.4,0.5,2.6c0.4,1.6,1.3,1.6,1.2,2.5c-0.1,1.6-3.1,1.9-3.3,3.8c-0.1,1.1,0.7,1.8,0.2,2.5
		c-0.4,0.6-1.1,0.3-1.5,0.9c-0.5,0.7,0.2,1.4,0.1,2.4c-0.2,2-3.2,2.3-3.4,4.1c-0.1,1,0.7,1.1,1.5,3.7c0.5,1.5,0.2,1.5,0.6,2.4
		c1,2,2.6,2.2,2.6,3.4c0,1-1.2,1.5-0.9,2.1c0.3,0.6,1.5,0.2,1.8,0.8c0.2,0.5-0.4,1.3-1,1.8c-1.2,0.8-2.5,0.3-2.6,0.7
		c-0.2,0.5,2,1.4,1.9,2.2c-0.1,0.6-1.4,0.6-1.5,1.2c-0.1,0.5,0.5,0.7,0.7,1.4c0.2,0.7-0.1,1.5-0.6,2c-0.8,0.8-1.7,0-2.9,0.4
		c-2.2,0.7-1.5,3.9-3.9,5.2c-1.6,0.9-2.7-0.2-3.9,0.8c-1.1,1-0.5,2.3-1.7,3.7c-1,1.2-2.4,1.6-3.7,1.9c-4.2,1-6.7-1.1-8.3,0.4
		c-0.7,0.7-0.4,1.4-1.4,2.3c-1.2,1-2.2,0.7-2.5,1.4c-0.4,1,1.4,1.8,1.4,3.7c0.1,1.7-1.4,2-1.4,3.7C-12.1,5-10.6,5.2-10,7.6
		c0.3,1.4,0,2.7-0.6,5.2c-0.6,2.4-0.9,3.7-2.1,4.5c-1,0.7-2,0.7-2.3,1.4c-0.3,0.9,1.1,1.5,1.4,3.1c0.4,1.6-0.5,3.2-1.2,4.3
		c-1.6,2.7-3.2,2.5-3.9,4.5c-0.6,1.6,0.3,2,0,4.3c-0.1,0.7-0.6,4.2-3.1,5.8c-2,1.3-3.9,0.4-4.5,1.7c-0.7,1.2,0.8,2.3,0.2,4.3
		c-0.4,1.2-1,1.2-1.4,2.5c-0.5,1.7,0.4,2.3,0,3.5c-0.7,2.1-3.6,1.8-4.3,3.7c-0.5,1.4,0.9,2,1.2,4.3c0.6,4.3-3.4,7.6-1.9,9.7
		c0.3,0.5,0.9,0.9,0.9,1.8c0,0.7-0.5,0.9-0.7,1.7c-0.5,1.5,1,2.3,0.6,3.7c-0.4,1.5-2.4,1.5-2.8,3.2c-0.2,0.7,0.2,0.9,0.3,2.1
		c0.4,3.1-1.6,4.3-0.9,6.7c0.4,1.2,0.9,1,1.2,2.4c0.3,1.1,0.3,2.7-0.5,4.1c-0.6,1.1-1.2,1.1-1.2,1.9c-0.1,1.4,1.6,2.4,1.2,3.1
		c-0.2,0.3-0.6,0.2-1,0.6c-0.6,0.6-0.3,1.3-0.6,2.1c-0.7,1.4-3,0.7-3.6,2c-0.6,1.1,1,2.1,0.5,3.5c-0.5,1.3-2.3,1.2-2.6,2.6
		c-0.1,0.5,0.1,0.6,0.4,1.9c0.5,2.4-0.2,3,0.5,3.9c0.7,1.1,2,0.9,2.2,1.8c0.2,0.9-0.8,1.6-0.5,2c0.3,0.4,2-0.7,2.7-0.1
		c0.3,0.3,0.1,0.6,0.4,2c0.2,0.8,0.4,1.5,0.9,1.8c0.5,0.2,1,0,1.1,0c43.4,0.8,65.2,1.2,67.9,2c0.2,0.1,0.9,0.3,1.5,0
		c1.3-0.7,0.6-2.9,1.9-3.8c1.4-1,4.1,0.6,4.3,0.1c0.1-0.2-0.2-0.3-0.4-0.6c-0.8-1.1-0.7-2.9,0-4.1c1.1-1.7,3.3-1.8,3.6-1.8
		c2.1,0,2.7,1.4,3.8,0.9c1.5-0.6,0.8-3.2,2.7-4.2c1-0.6,1.3,0.1,2.9-0.6c1.4-0.6,1.5-1.3,2.8-1.5c0.3-0.1,1.4-0.3,2.6,0.2
		c1.1,0.5,1.1,1.3,2.1,1.5c0.9,0.2,2-0.2,2.3-0.8c0.2-0.4-0.1-0.6-0.1-1.5c0-0.8,0.3-1.4,0.4-1.8c0.4-0.9,0.6-0.8,0.9-1.5
		c0.5-1.1,0.1-1.5,0.6-2.4c0.4-0.8,0.7-0.7,1.4-1.5c0.5-0.6,0.5-0.9,1.3-2.6C69.9,98.7,70.3,98.4,70.1,97.7z"/>
	<g display="inline">
		<g>
			<circle fill="#010101" cx="46.4" cy="100.9" r="2.5"/>
			<path fill="#010101" d="M46.4,110.1c0,0,5.4-6.2,5.4-9.2c0-3-2.4-5.4-5.4-5.4s-5.4,2.4-5.4,5.4C41,103.9,46.4,110.1,46.4,110.1z
				 M46.4,97.2c2.1,0,3.8,1.7,3.8,3.8s-1.7,3.8-3.8,3.8c-2.1,0-3.8-1.7-3.8-3.8S44.3,97.2,46.4,97.2z"/>
		</g>
	</g>
	<g display="inline">
		<g>
			<circle fill="#010101" cx="53.6" cy="87.3" r="3.3"/>
			<path fill="#010101" d="M53.6,99.4c0,0,7.2-8.2,7.2-12.1c0-4-3.2-7.2-7.2-7.2s-7.2,3.2-7.2,7.2C46.4,91.3,53.6,99.4,53.6,99.4z
				 M53.6,82.3c2.7,0,5,2.2,5,5c0,2.7-2.2,5-5,5c-2.7,0-5-2.2-5-5C48.6,84.5,50.9,82.3,53.6,82.3z"/>
		</g>
	</g>
	<g display="inline">
		<g>
			<circle fill="#010101" cx="60.8" cy="101.3" r="1.9"/>
			<path fill="#010101" d="M60.8,108.5c0,0,4.3-4.8,4.3-7.2c0-2.4-1.9-4.3-4.3-4.3c-2.4,0-4.3,1.9-4.3,4.3S60.8,108.5,60.8,108.5z
				 M60.8,98.4c1.6,0,2.9,1.3,2.9,2.9s-1.3,2.9-2.9,2.9c-1.6,0-2.9-1.3-2.9-2.9S59.2,98.4,60.8,98.4z"/>
		</g>
	</g>
	<g display="inline">
		<g>
			<circle fill="#010101" cx="36.8" cy="90.7" r="3"/>
			<path fill="#010101" d="M36.8,101.8c0,0,6.6-7.5,6.6-11.2c0-3.7-3-6.6-6.6-6.6s-6.6,3-6.6,6.6S36.8,101.8,36.8,101.8z M36.8,86.1
				c2.5,0,4.6,2,4.6,4.6c0,2.5-2,4.6-4.6,4.6c-2.5,0-4.6-2-4.6-4.6C32.2,88.1,34.3,86.1,36.8,86.1z"/>
		</g>
	</g>
	<g display="inline">
		<g>
			<circle fill="#010101" cx="42.8" cy="78.6" r="1.7"/>
			<path fill="#010101" d="M42.8,84.8c0,0,3.7-4.2,3.7-6.2c0-2-1.7-3.7-3.7-3.7c-2,0-3.7,1.7-3.7,3.7S42.8,84.8,42.8,84.8z M42.8,76
				c1.4,0,2.6,1.1,2.6,2.6c0,1.4-1.1,2.6-2.6,2.6c-1.4,0-2.6-1.1-2.6-2.6S41.4,76,42.8,76z"/>
		</g>
	</g>
	<g display="inline">
		<g>
			<circle fill="#010101" cx="36.8" cy="108.7" r="1.9"/>
			<path fill="#010101" d="M36.8,115.6c0,0,4.1-4.7,4.1-7c0-2.3-1.9-4.1-4.1-4.1c-2.3,0-4.1,1.9-4.1,4.1
				C32.7,111,36.8,115.6,36.8,115.6z M36.8,105.8c1.6,0,2.9,1.3,2.9,2.9s-1.3,2.9-2.9,2.9c-1.6,0-2.9-1.3-2.9-2.9
				S35.2,105.8,36.8,105.8z"/>
		</g>
	</g>
	<text transform="matrix(1 0 0 1 53.5961 34.0076)" display="inline"><tspan x="0" y="0" font-family="'Raleway-ExtraBold'" font-size="74.8661">LOC   LS</tspan><tspan x="291.2" y="0" font-family="'Raleway-Bold'" font-size="74.8661"> </tspan></text>
</g>
<g id="Layer_2_copy">
	<path fill="#FFFFFF" stroke="#FFFFFF" stroke-width="2" stroke-miterlimit="10" d="M224.4,92.5c-0.1-0.2-0.2-0.2-0.6-0.6
		c-0.4-0.4-0.4-0.5-0.7-0.8c-0.8-0.8-1.4-0.8-1.6-1.4c-0.1-0.2,0-0.4,0-0.6c0.1-1,0.3-2.3-0.1-3.1c-0.5-1-1.4-0.6-1.8-1.7
		c-0.2-0.6-0.1-1.1-0.5-1.4c-0.3-0.2-0.5,0-0.9-0.1c-0.7-0.3-1.1-1.5-0.7-2.3c0.2-0.3,0.5-0.4,0.6-0.8c0.2-0.5,0-1,0-1
		c-0.1-0.4-0.3-0.4-0.3-0.7c0-0.3,0.3-0.4,0.4-0.8c0.1-0.3-0.1-0.4-0.1-0.8c0.1-0.4,0.3-0.5,0.3-0.7c-0.1-0.2-0.3-0.1-0.4-0.3
		c-0.2-0.2-0.1-0.6,0-0.7c0.3-1.1-2.8-47.9-3.4-56.6c0,0,0,0,0,0c-0.1,0-0.1,0-0.2,0c-0.1,0-0.2,0-0.3,0c-0.1,0.2-0.2,0.3-0.4,0.5
		c-0.7,0.6-1.7,0.6-2.3,0.3c0,0,0,0,0,0c-0.1,0-0.3,0-0.4,0c0,0-0.1,0-0.1,0c-0.1,0-0.2,0-0.2-0.1c-0.1,0-0.1,0-0.1-0.1
		c-0.1,0-0.1-0.1-0.2-0.1c0,0-0.1-0.1-0.1-0.1c0,0-0.1-0.1-0.1-0.1c0,0-0.1-0.1-0.1-0.2c0,0,0-0.1-0.1-0.1c0-0.1-0.1-0.1-0.1-0.2
		c0,0,0,0,0-0.1c0-0.1-0.1-0.2-0.1-0.2c0,0,0,0,0,0c0-0.1,0-0.2-0.1-0.3c0,0,0,0,0,0c0,0-0.1,0-0.1,0c-0.3,0.2-0.6,0.3-1,0.3
		c-0.1,0-0.1,0-0.2,0c-0.1,0.1-0.2,0.2-0.2,0.3c-0.1,0.2,0.1,0.3,0,0.5c-0.1,0.4-0.6,0.6-0.7,0.7c-0.7,0.3-1.5,0-1.5,0.1
		c0,0.1,1.3,0.4,1.4,0.9c0,0.1-0.1,0.2-0.4,0.6c-0.4,0.6-0.7,1-0.7,1.3c0,0.4,0.4,0.4,0.5,0.8c0.1,0.7-0.8,1.3-1,1.4
		c-0.6,0.5-1.3,0.6-1.3,0.8c0,0.2,0.4,0.2,0.5,0.5c0.1,0.3-0.3,0.5-0.2,0.8c0.1,0.3,0.8,0.3,0.8,0.4c0,0.1-0.4,0.2-1,0.4
		c-0.4,0.2-0.8,0.3-0.8,0.5c0,0.2,0.3,0.2,0.5,0.5c0.2,0.3,0.1,0.6,0.2,1c0.2,0.7,0.5,0.7,0.5,1c0,0.7-1.2,0.8-1.3,1.6
		c-0.1,0.4,0.3,0.7,0.1,1c-0.2,0.2-0.5,0.1-0.6,0.4c-0.2,0.3,0.1,0.6,0,1c-0.1,0.8-1.3,0.9-1.4,1.7c0,0.4,0.3,0.4,0.6,1.5
		c0.2,0.6,0.1,0.6,0.3,1c0.4,0.8,1.1,0.9,1,1.4c0,0.4-0.5,0.6-0.4,0.8c0.1,0.2,0.6,0.1,0.7,0.3c0.1,0.2-0.1,0.5-0.4,0.7
		c-0.5,0.3-1,0.1-1,0.3c-0.1,0.2,0.8,0.6,0.8,0.9c0,0.2-0.6,0.2-0.6,0.5c0,0.2,0.2,0.3,0.3,0.6c0.1,0.3-0.1,0.6-0.3,0.8
		c-0.3,0.3-0.7,0-1.2,0.2c-0.9,0.3-0.6,1.6-1.6,2.1c-0.7,0.4-1.1-0.1-1.6,0.3c-0.5,0.4-0.2,0.9-0.7,1.5c-0.4,0.5-1,0.6-1.5,0.8
		c-1.7,0.4-2.7-0.4-3.4,0.2c-0.3,0.3-0.2,0.6-0.6,0.9c-0.5,0.4-0.9,0.3-1,0.6c-0.2,0.4,0.6,0.7,0.6,1.5c0,0.7-0.6,0.8-0.6,1.5
		c0,0.8,0.6,0.9,0.8,1.8c0.1,0.6,0,1.1-0.3,2.1c-0.2,1-0.4,1.5-0.8,1.8c-0.4,0.3-0.8,0.3-0.9,0.6c-0.1,0.4,0.4,0.6,0.6,1.3
		c0.2,0.7-0.2,1.3-0.5,1.8c-0.7,1.1-1.3,1-1.6,1.8c-0.2,0.7,0.1,0.8,0,1.8c0,0.3-0.2,1.7-1.3,2.3c-0.8,0.5-1.6,0.2-1.8,0.7
		c-0.3,0.5,0.3,0.9,0.1,1.8c-0.2,0.5-0.4,0.5-0.6,1c-0.2,0.7,0.2,0.9,0,1.4c-0.3,0.9-1.5,0.7-1.8,1.5c-0.2,0.6,0.4,0.8,0.5,1.8
		c0.3,1.8-1.4,3.1-0.8,3.9c0.1,0.2,0.4,0.4,0.4,0.7c0,0.3-0.2,0.4-0.3,0.7c-0.2,0.6,0.4,0.9,0.3,1.5c-0.2,0.6-1,0.6-1.1,1.3
		c-0.1,0.3,0.1,0.4,0.1,0.8c0.2,1.3-0.7,1.7-0.4,2.7c0.1,0.5,0.4,0.4,0.5,1c0.1,0.5,0.1,1.1-0.2,1.7c-0.3,0.5-0.5,0.4-0.5,0.8
		c-0.1,0.6,0.7,1,0.5,1.3c-0.1,0.1-0.2,0.1-0.4,0.3c-0.3,0.2-0.1,0.5-0.3,0.8c-0.3,0.6-1.2,0.3-1.5,0.8c-0.2,0.4,0.4,0.9,0.2,1.4
		c-0.2,0.5-0.9,0.5-1,1c0,0.2,0.1,0.2,0.2,0.8c0.2,1-0.1,1.2,0.2,1.6c0.3,0.4,0.8,0.3,0.9,0.7c0.1,0.4-0.3,0.7-0.2,0.8
		c0.1,0.2,0.8-0.3,1.1,0c0.1,0.1,0,0.3,0.2,0.8c0.1,0.3,0.2,0.6,0.4,0.7c0.2,0.1,0.4,0,0.5,0c17.6,0.3,26.4,0.5,27.5,0.8
		c0.1,0,0.4,0.1,0.6,0c0.5-0.3,0.2-1.2,0.8-1.6c0.6-0.4,1.7,0.2,1.8,0c0-0.1-0.1-0.1-0.1-0.3c-0.3-0.4-0.3-1.2,0-1.7
		c0.4-0.7,1.4-0.7,1.5-0.7c0.8,0,1.1,0.6,1.6,0.4c0.6-0.2,0.3-1.3,1.1-1.7c0.4-0.2,0.5,0,1.2-0.3c0.6-0.2,0.6-0.5,1.1-0.6
		c0.1,0,0.6-0.1,1,0.1c0.5,0.2,0.4,0.5,0.8,0.6c0.4,0.1,0.8-0.1,0.9-0.3c0.1-0.2-0.1-0.2,0-0.6c0-0.3,0.1-0.6,0.2-0.7
		c0.1-0.3,0.2-0.3,0.4-0.6c0.2-0.5,0.1-0.6,0.3-1c0.2-0.3,0.3-0.3,0.6-0.6c0.2-0.3,0.2-0.3,0.5-1C224.3,92.9,224.4,92.7,224.4,92.5z
		"/>
	<text transform="matrix(1 0 0 1 52.1453 175.4697)" fill="#FFFFFF" font-family="'Raleway-ExtraBold'" font-size="87.7546">ONLY</text>
</g>
<g id="Layer_5">
	<text transform="matrix(1 0 0 1 -1.621246e-04 105.1672)"><tspan x="0" y="0" fill="#FFFFFF" font-family="'Raleway-ExtraBold'" font-size="87.7546">LOC</tspan><tspan x="174.3" y="0" fill="#FFFFFF" stroke="#FFFFFF" stroke-width="2" stroke-miterlimit="10" font-family="'Raleway-ExtraBold'" font-size="71.9957">   </tspan><tspan x="224.6" y="0" fill="#FFFFFF" stroke="#FFFFFF" stroke-width="2" stroke-miterlimit="10" font-family="'Raleway-Bold'" font-size="71.9957"> </tspan></text>
	<text transform="matrix(1 0 0 1 230.5263 104.4844)" fill="#FFFFFF" font-family="'Raleway-ExtraBold'" font-size="87.7546">LS</text>
</g>
<g id="Layer_6">
</g>
</svg>
