<?xml version="1.0" encoding="utf-8"?>
<!-- Generator: Adobe Illustrator 18.1.0, SVG Export Plug-In . SVG Version: 6.00 Build 0)  -->
<svg version="1.1" id="Layer_1" xmlns="http://www.w3.org/2000/svg" xmlns:xlink="http://www.w3.org/1999/xlink" x="0px" y="0px"
	 viewBox="0 0 400 125" enable-background="new 0 0 400 125" xml:space="preserve">
<g>
	<path fill="#FFFFFF" d="M73.9,51.5c-0.4-0.4-1-0.9-2-1.5c-1-0.6-2.1-1.3-3.5-1.9c-1.4-0.6-2.9-1.1-4.5-1.5
		c-1.6-0.4-3.3-0.6-4.9-0.6c-3,0-5.2,0.6-6.7,1.7c-1.5,1.1-2.2,2.7-2.2,4.7c0,1.2,0.3,2.1,0.8,2.9c0.5,0.8,1.3,1.4,2.4,2
		c1,0.6,2.4,1.1,4,1.6c1.6,0.5,3.4,1,5.5,1.5c2.7,0.7,5.2,1.5,7.4,2.4c2.2,0.8,4.1,1.9,5.7,3.2c1.5,1.3,2.7,2.8,3.6,4.6
		c0.8,1.8,1.3,4,1.3,6.5c0,3-0.6,5.6-1.7,7.7c-1.1,2.1-2.6,3.9-4.5,5.2c-1.9,1.3-4.1,2.3-6.6,2.9s-5.1,0.9-7.9,0.9
		c-4.2,0-8.3-0.6-12.4-1.9c-4.1-1.3-7.7-3.1-11-5.4l4.8-9.4c0.5,0.5,1.3,1.1,2.6,1.9c1.2,0.8,2.7,1.5,4.4,2.3
		c1.7,0.8,3.5,1.4,5.6,1.9c2,0.5,4.1,0.8,6.3,0.8c6,0,9-1.9,9-5.8c0-1.3-0.3-2.3-1-3.2c-0.7-0.8-1.6-1.6-2.9-2.2s-2.8-1.2-4.6-1.7
		c-1.8-0.5-3.8-1.1-6-1.7c-2.7-0.7-5-1.5-6.9-2.4c-2-0.9-3.6-1.9-4.9-3.1c-1.3-1.2-2.3-2.5-2.9-4.1c-0.7-1.6-1-3.5-1-5.6
		c0-2.9,0.5-5.4,1.6-7.6c1-2.2,2.5-4.1,4.4-5.6c1.9-1.5,4-2.6,6.5-3.4c2.5-0.8,5.1-1.2,7.9-1.2c3.9,0,7.5,0.6,10.8,1.9
		c3.3,1.2,6.2,2.7,8.6,4.4L73.9,51.5z"/>
	<path fill="#FFFFFF" d="M119.7,83.8c2.6,0,4.7-0.5,6.5-1.6c1.8-1.1,3.2-2.4,4.2-4.1c1.1-1.7,1.8-3.6,2.3-5.8
		c0.4-2.2,0.7-4.5,0.7-6.8V36.8h10.8v28.7c0,3.9-0.5,7.5-1.4,10.9c-0.9,3.4-2.4,6.3-4.3,8.9c-2,2.5-4.5,4.5-7.6,6
		c-3.1,1.5-6.8,2.2-11.1,2.2c-4.4,0-8.2-0.8-11.3-2.3c-3.1-1.6-5.6-3.6-7.6-6.2c-1.9-2.6-3.3-5.5-4.2-8.9c-0.9-3.4-1.3-6.9-1.3-10.5
		V36.8h10.8v28.7c0,2.4,0.2,4.7,0.7,6.9c0.4,2.2,1.2,4.1,2.3,5.8c1.1,1.7,2.5,3.1,4.2,4.1C115.1,83.3,117.2,83.8,119.7,83.8z"/>
	<path fill="#FFFFFF" d="M303.9,86.7c-4.3,4.5-9.2,6.7-14.8,6.7c-3.6,0-6.9-0.8-10-2.4c-3.1-1.6-5.9-3.7-8.2-6.4
		c-2.3-2.7-4.2-5.7-5.5-9.2c-1.3-3.5-2-7.1-2-10.9c0-3.9,0.7-7.5,2-10.9c1.3-3.4,3.2-6.4,5.6-9c2.4-2.6,5.2-4.6,8.4-6.1
		c3.2-1.5,6.7-2.3,10.5-2.3c5.1,0,9.4,1.1,13,3.3s6.3,5.2,8.2,9l-8.1,6c-1.4-2.8-3.2-4.9-5.6-6.4c-2.4-1.5-5-2.2-7.9-2.2
		c-2.3,0-4.4,0.5-6.2,1.5c-1.9,1-3.4,2.4-4.7,4.1c-1.3,1.7-2.3,3.8-3.1,6c-0.7,2.3-1.1,4.7-1.1,7.2c0,2.6,0.4,5.1,1.2,7.4
		c0.8,2.3,1.9,4.3,3.3,6c1.4,1.7,3.1,3,5,4c1.9,1,4,1.5,6.3,1.5c5.1,0,9.8-2.6,13.9-7.7v-4h-11.2v-8h20.2v28.9h-9V86.7z"/>
	<path fill="#FFFFFF" d="M368.2,83.5v9.6h-38.7V36.8h38v9.6h-27.2v13.6h23.5v8.9h-23.5v14.7H368.2z"/>
</g>
<path fill="#FFFFFF" d="M103.5,111.8c0,0,43.9-8.6,73.3-51c29.4-42.3,76.1-34.6,75.5-7.8c-0.3,14.8-13.6,19.6-13.6,19.6
	s4.4-19.4-9.2-16.2c-13.6,3.2-11.4,31.4,48,55.4H103.5z"/>
<path fill="none" stroke="#FFFFFF" stroke-width="10.4768" stroke-miterlimit="10" d="M373.1,115.2h-343c-6.2,0-11.2-5-11.2-11.2
	V19.9c0-6.2,5-11.2,11.2-11.2h343c6.2,0,11.2,5,11.2,11.2V104C384.3,110.2,379.3,115.2,373.1,115.2z"/>
</svg>
